REM DIRINDEX 1\2,1\3
REM DIRNAME folder01,folder02,folder03
TITLE ""
FILE "Disc1Track13.mp3" MP3
  TRACK 01 AUDIO
    TITLE "0:"
    INDEX 01 00:00:00
  TRACK 02 AUDIO
    TITLE "3:cjc116_1382"
    INDEX 01 00:00:07
  TRACK 03 AUDIO
    TITLE "0:"
    INDEX 01 00:01:62
  TRACK 04 AUDIO
    TITLE "2:cjc116_1383"
    INDEX 01 00:02:42
  TRACK 05 AUDIO
    TITLE "0:"
    INDEX 01 00:03:41
  TRACK 06 AUDIO
    TITLE "2:cjc116_1384"
    INDEX 01 00:03:63
  TRACK 07 AUDIO
    TITLE "0:"
    INDEX 01 00:08:15
  TRACK 08 AUDIO
    TITLE "2:cjc116_1385"
    INDEX 01 00:08:58
  TRACK 09 AUDIO
    TITLE "0:"
    INDEX 01 00:09:47
  TRACK 10 AUDIO
    TITLE "2:cjc116_1386"
    INDEX 01 00:09:57
  TRACK 11 AUDIO
    TITLE "0:"
    INDEX 01 00:14:47
  TRACK 12 AUDIO
    TITLE "2:cjc116_1387"
    INDEX 01 00:15:13
  TRACK 13 AUDIO
    TITLE "0:"
    INDEX 01 00:16:30
  TRACK 14 AUDIO
    TITLE "2:cjc116_1388"
    INDEX 01 00:16:36
  TRACK 15 AUDIO
    TITLE "0:"
    INDEX 01 00:20:69
  TRACK 16 AUDIO
    TITLE "2:cjc116_1389"
    INDEX 01 00:21:33
  TRACK 17 AUDIO
    TITLE "0:"
    INDEX 01 00:22:44
  TRACK 18 AUDIO
    TITLE "2:cjc116_1390"
    INDEX 01 00:22:50
  TRACK 19 AUDIO
    TITLE "0:"
    INDEX 01 00:26:48
  TRACK 20 AUDIO
    TITLE "2:cjc116_1391"
    INDEX 01 00:27:12
  TRACK 21 AUDIO
    TITLE "0:"
    INDEX 01 00:28:27
  TRACK 22 AUDIO
    TITLE "2:cjc116_1392"
    INDEX 01 00:28:43
  TRACK 23 AUDIO
    TITLE "0:"
    INDEX 01 00:33:21
  TRACK 24 AUDIO
    TITLE "2:cjc116_1393"
    INDEX 01 00:33:58
  TRACK 25 AUDIO
    TITLE "0:"
    INDEX 01 00:34:53
  TRACK 26 AUDIO
    TITLE "2:cjc116_1394"
    INDEX 01 00:34:73
  TRACK 27 AUDIO
    TITLE "0:"
    INDEX 01 00:38:69
  TRACK 28 AUDIO
    TITLE "2:cjc116_1395"
    INDEX 01 00:39:37
  TRACK 29 AUDIO
    TITLE "0:"
    INDEX 01 00:40:38
  TRACK 30 AUDIO
    TITLE "2:cjc116_1396"
    INDEX 01 00:40:60
  TRACK 31 AUDIO
    TITLE "0:"
    INDEX 01 00:45:20
  TRACK 32 AUDIO
    TITLE "2:cjc116_1397"
    INDEX 01 00:45:63
  TRACK 33 AUDIO
    TITLE "0:"
    INDEX 01 00:46:62
  TRACK 34 AUDIO
    TITLE "2:cjc116_1398"
    INDEX 01 00:47:01
  TRACK 35 AUDIO
    TITLE "0:"
    INDEX 01 00:51:60
  TRACK 36 AUDIO
    TITLE "2:cjc116_1399"
    INDEX 01 00:52:37
  TRACK 37 AUDIO
    TITLE "0:"
    INDEX 01 00:53:29
  TRACK 38 AUDIO
    TITLE "2:cjc116_1400"
    INDEX 01 00:53:55
  TRACK 39 AUDIO
    TITLE "0:"
    INDEX 01 00:58:26
  TRACK 40 AUDIO
    TITLE "2:cjc116_1401"
    INDEX 01 00:58:71
  TRACK 41 AUDIO
    TITLE "0:"
    INDEX 01 01:00:00
  TRACK 42 AUDIO
    TITLE "2:cjc116_1402"
    INDEX 01 01:00:13
  TRACK 43 AUDIO
    TITLE "0:"
    INDEX 01 01:04:17
  TRACK 44 AUDIO
    TITLE "2:cjc116_1403"
    INDEX 01 01:04:72
  TRACK 45 AUDIO
    TITLE "0:"
    INDEX 01 01:05:68
  TRACK 46 AUDIO
    TITLE "2:cjc116_1404"
    INDEX 01 01:06:04
  TRACK 47 AUDIO
    TITLE "0:"
    INDEX 01 01:11:41
  TRACK 48 AUDIO
    TITLE "2:cjc116_1405"
    INDEX 01 01:12:09
  TRACK 49 AUDIO
    TITLE "0:"
    INDEX 01 01:13:36
  TRACK 50 AUDIO
    TITLE "2:cjc116_1406"
    INDEX 01 01:13:49
  TRACK 51 AUDIO
    TITLE "0:"
    INDEX 01 01:17:26
  TRACK 52 AUDIO
    TITLE "2:cjc116_1407"
    INDEX 01 01:17:67
  TRACK 53 AUDIO
    TITLE "0:"
    INDEX 01 01:18:68
  TRACK 54 AUDIO
    TITLE "2:cjc116_1408"
    INDEX 01 01:19:13
  TRACK 55 AUDIO
    TITLE "0:"
    INDEX 01 01:22:56
  TRACK 56 AUDIO
    TITLE "2:cjc116_1409"
    INDEX 01 01:23:22
  TRACK 57 AUDIO
    TITLE "0:"
    INDEX 01 01:24:18
  TRACK 58 AUDIO
    TITLE "2:cjc116_1410"
    INDEX 01 01:24:32
  TRACK 59 AUDIO
    TITLE "0:"
    INDEX 01 01:28:39
  TRACK 60 AUDIO
    TITLE "2:cjc116_1411"
    INDEX 01 01:29:03
  TRACK 61 AUDIO
    TITLE "0:"
    INDEX 01 01:29:74
  TRACK 62 AUDIO
    TITLE "2:cjc116_1412"
    INDEX 01 01:30:13
  TRACK 63 AUDIO
    TITLE "0:"
    INDEX 01 01:33:29
  TRACK 64 AUDIO
    TITLE "2:cjc116_1413"
    INDEX 01 01:33:74
  TRACK 65 AUDIO
    TITLE "0:"
    INDEX 01 01:35:06
  TRACK 66 AUDIO
    TITLE "2:cjc116_1414"
    INDEX 01 01:35:18
  TRACK 67 AUDIO
    TITLE "0:"
    INDEX 01 01:39:21
  TRACK 68 AUDIO
    TITLE "2:cjc116_1415"
    INDEX 01 01:40:01
  TRACK 69 AUDIO
    TITLE "0:"
    INDEX 01 01:41:03
  TRACK 70 AUDIO
    TITLE "2:cjc116_1416"
    INDEX 01 01:41:18
  TRACK 71 AUDIO
    TITLE "0:"
    INDEX 01 01:45:30
  TRACK 72 AUDIO
    TITLE "2:cjc116_1417"
    INDEX 01 01:45:71
  TRACK 73 AUDIO
    TITLE "0:"
    INDEX 01 01:47:05
  TRACK 74 AUDIO
    TITLE "2:cjc116_1418"
    INDEX 01 01:47:21
  TRACK 75 AUDIO
    TITLE "0:"
    INDEX 01 01:51:50
  TRACK 76 AUDIO
    TITLE "2:cjc116_1419"
    INDEX 01 01:52:18
  TRACK 77 AUDIO
    TITLE "0:"
    INDEX 01 01:53:29
  TRACK 78 AUDIO
    TITLE "2:cjc116_1420"
    INDEX 01 01:53:45
  TRACK 79 AUDIO
    TITLE "0:"
    INDEX 01 01:58:11
  TRACK 80 AUDIO
    TITLE "2:cjc116_1421"
    INDEX 01 01:58:52
  TRACK 81 AUDIO
    TITLE "0:"
    INDEX 01 01:59:57
  TRACK 82 AUDIO
    TITLE "2:cjc116_1422"
    INDEX 01 01:59:69
  TRACK 83 AUDIO
    TITLE "0:"
    INDEX 01 02:04:23
  TRACK 84 AUDIO
    TITLE "2:cjc116_1423"
    INDEX 01 02:04:66
  TRACK 85 AUDIO
    TITLE "0:"
    INDEX 01 02:05:72
  TRACK 86 AUDIO
    TITLE "2:cjc116_1424"
    INDEX 01 02:06:10
  TRACK 87 AUDIO
    TITLE "0:"
    INDEX 01 02:10:53
  TRACK 88 AUDIO
    TITLE "2:cjc116_1425"
    INDEX 01 02:11:17
  TRACK 89 AUDIO
    TITLE "0:"
    INDEX 01 02:12:11
  TRACK 90 AUDIO
    TITLE "2:cjc116_1426"
    INDEX 01 02:12:31
  TRACK 91 AUDIO
    TITLE "0:"
    INDEX 01 02:16:54
  TRACK 92 AUDIO
    TITLE "2:cjc116_1427"
    INDEX 01 02:17:18
  TRACK 93 AUDIO
    TITLE "0:"
    INDEX 01 02:18:18
  TRACK 94 AUDIO
    TITLE "2:cjc116_1428"
    INDEX 01 02:18:33
  TRACK 95 AUDIO
    TITLE "0:"
    INDEX 01 02:22:07
  TRACK 96 AUDIO
    TITLE "2:cjc116_1429"
    INDEX 01 02:22:56
  TRACK 97 AUDIO
    TITLE "0:"
    INDEX 01 02:23:48
  TRACK 98 AUDIO
    TITLE "2:cjc116_1430"
    INDEX 01 02:23:66
  TRACK 99 AUDIO
    TITLE "0:"
    INDEX 01 02:28:24
  TRACK 100 AUDIO
    TITLE "2:cjc116_1431"
    INDEX 01 02:28:61
  TRACK 101 AUDIO
    TITLE "0:"
    INDEX 01 02:29:68
  TRACK 102 AUDIO
    TITLE "2:cjc116_1432"
    INDEX 01 02:30:09
  TRACK 103 AUDIO
    TITLE "0:"
    INDEX 01 02:35:02
  TRACK 104 AUDIO
    TITLE "2:cjc116_1433"
    INDEX 01 02:35:43
  TRACK 105 AUDIO
    TITLE "0:"
    INDEX 01 02:36:35
  TRACK 106 AUDIO
    TITLE "2:cjc116_1434"
    INDEX 01 02:36:55
  TRACK 107 AUDIO
    TITLE "0:"
    INDEX 01 02:41:44
  TRACK 108 AUDIO
    TITLE "2:cjc116_1435"
    INDEX 01 02:42:12
  TRACK 109 AUDIO
    TITLE "0:"
    INDEX 01 02:43:12
  TRACK 110 AUDIO
    TITLE "2:cjc116_1436"
    INDEX 01 02:43:31
  TRACK 111 AUDIO
    TITLE "0:"
    INDEX 01 02:48:11
  TRACK 112 AUDIO
    TITLE "2:cjc116_1437"
    INDEX 01 02:48:68
  TRACK 113 AUDIO
    TITLE "0:"
    INDEX 01 02:49:65
  TRACK 114 AUDIO
    TITLE "2:cjc116_1438"
    INDEX 01 02:50:10
  TRACK 115 AUDIO
    TITLE "0:"
    INDEX 01 02:54:62
  TRACK 116 AUDIO
    TITLE "2:cjc116_1439"
    INDEX 01 02:55:30
  TRACK 117 AUDIO
    TITLE "0:"
    INDEX 01 02:56:20
  TRACK 118 AUDIO
    TITLE "2:cjc116_1440"
    INDEX 01 02:56:40
  TRACK 119 AUDIO
    TITLE "0:"
    INDEX 01 03:00:59
  TRACK 120 AUDIO
    TITLE "2:cjc116_1441"
    INDEX 01 03:01:25
  TRACK 121 AUDIO
    TITLE "0:"
    INDEX 01 03:02:23
  TRACK 122 AUDIO
    TITLE "2:cjc116_1442"
    INDEX 01 03:02:36
  TRACK 123 AUDIO
    TITLE "0:"
    INDEX 01 03:06:50
  TRACK 124 AUDIO
    TITLE "2:cjc116_1443"
    INDEX 01 03:07:12
  TRACK 125 AUDIO
    TITLE "0:"
    INDEX 01 03:08:13
  TRACK 126 AUDIO
    TITLE "2:cjc116_1444"
    INDEX 01 03:08:33
  TRACK 127 AUDIO
    TITLE "0:"
    INDEX 01 03:12:50
  TRACK 128 AUDIO
    TITLE "2:cjc116_1445"
    INDEX 01 03:13:19
  TRACK 129 AUDIO
    TITLE "0:"
    INDEX 01 03:14:14
  TRACK 130 AUDIO
    TITLE "2:cjc116_1446"
    INDEX 01 03:14:38
  TRACK 131 AUDIO
    TITLE "0:"
    INDEX 01 03:18:65
  TRACK 132 AUDIO
    TITLE "2:cjc116_1447"
    INDEX 01 03:19:33
  TRACK 133 AUDIO
    TITLE "0:"
    INDEX 01 03:20:32
  TRACK 134 AUDIO
    TITLE "2:cjc116_1448"
    INDEX 01 03:20:44
  TRACK 135 AUDIO
    TITLE "0:"
    INDEX 01 03:25:59
  TRACK 136 AUDIO
    TITLE "2:cjc116_1449"
    INDEX 01 03:26:23
  TRACK 137 AUDIO
    TITLE "0:"
    INDEX 01 03:27:32
  TRACK 138 AUDIO
    TITLE "2:cjc116_1450"
    INDEX 01 03:27:50
  TRACK 139 AUDIO
    TITLE "0:"
    INDEX 01 03:32:02
  TRACK 140 AUDIO
    TITLE "2:cjc116_1451"
    INDEX 01 03:32:49
  TRACK 141 AUDIO
    TITLE "0:"
    INDEX 01 03:33:47
  TRACK 142 AUDIO
    TITLE "2:cjc116_1452"
    INDEX 01 03:33:58
  TRACK 143 AUDIO
    TITLE "0:"
    INDEX 01 03:38:71
  TRACK 144 AUDIO
    TITLE "2:cjc116_1453"
    INDEX 01 03:39:39
  TRACK 145 AUDIO
    TITLE "0:"
    INDEX 01 03:40:41
  TRACK 146 AUDIO
    TITLE "2:cjc116_1454"
    INDEX 01 03:40:59
  TRACK 147 AUDIO
    TITLE "0:"
    INDEX 01 03:44:72
